<svg aria-hidden="true" class="f1w7gpdv fez10in f1dd5bof" fill="#8251EE" width="20" height="20" viewBox="0 0 20 20" xmlns="http://www.w3.org/2000/svg"><path d="M9.08 18a3 3 0 0 0 .67-1.24l3.4-12.75V4c.07-.2 0-.53-.31-.6-.36-.09-.55.09-.64.28a1 1 0 0 0-.02.07L8.78 16.5a2.02 2.02 0 0 1-3.65.56l-3.86-6.13a1.75 1.75 0 0 1 0-1.86L5.2 2.82C5.53 2.3 6.09 2 6.69 2h4.23a3 3 0 0 0-.67 1.24l-3.4 12.75V16c-.07.2 0 .53.31.6.36.09.55-.09.63-.28a1 1 0 0 0 .03-.07l3.4-12.76a2.01 2.01 0 0 1 3.64-.55l3.93 6.3c.29.47.29 1.05 0 1.52l-4 6.42c-.32.5-.88.82-1.48.82H9.08Z" fill="#8251EE"></path></svg>